<svg width="58" height="54" viewBox="0 0 58 54" fill="none" xmlns="http://www.w3.org/2000/svg">
<path d="M36.4776 31.2476H32.0895V36.2625L24.7821 31.2476H5.13443C4.72055 31.2477 4.31077 31.1657 3.92874 31.0065C3.5467 30.8473 3.19999 30.614 2.90859 30.3201C2.61719 30.0262 2.38687 29.6775 2.23095 29.2942C2.07502 28.9108 1.99657 28.5003 2.00012 28.0864V5.13431C2.00012 4.30304 2.33034 3.50583 2.91814 2.91804C3.50594 2.33024 4.30316 2 5.13443 2H36.4776C37.3088 2 38.1061 2.33024 38.6939 2.91804C39.2817 3.50583 39.6119 4.30304 39.6119 5.13431V28.0864C39.6154 28.5003 39.537 28.9108 39.381 29.2942C39.2251 29.6775 38.9948 30.0262 38.7034 30.3201C38.412 30.614 38.0653 30.8473 37.6832 31.0065C37.3012 31.1657 36.8914 31.2477 36.4776 31.2476Z" stroke="#BB985C" stroke-width="3" stroke-linecap="round" stroke-linejoin="round"/>
<path d="M52.5968 47.3668H48.2087V52.3817L40.9013 47.3668H21.2536C20.8398 47.3669 20.43 47.2849 20.0479 47.1257C19.6659 46.9665 19.3192 46.7332 19.0278 46.4393C18.7364 46.1454 18.5061 45.7967 18.3502 45.4134C18.1942 45.03 18.1158 44.6195 18.1193 44.2056V21.2535C18.1193 20.4222 18.4495 19.625 19.0373 19.0372C19.6251 18.4494 20.4224 18.1192 21.2536 18.1192H52.5968C53.428 18.1192 54.2253 18.4494 54.8131 19.0372C55.4009 19.625 55.7311 20.4222 55.7311 21.2535V44.2056C55.7346 44.6195 55.6562 45.03 55.5002 45.4134C55.3443 45.7967 55.114 46.1454 54.8226 46.4393C54.5312 46.7332 54.1845 46.9665 53.8024 47.1257C53.4204 47.2849 53.0106 47.3669 52.5968 47.3668Z" stroke="#BB985C" stroke-width="3" stroke-linecap="round" stroke-linejoin="round"/>
</svg>
