<svg width="46" height="33" viewBox="0 0 46 33" fill="none" xmlns="http://www.w3.org/2000/svg">
<path d="M17.5284 30.8268H40.0749C41.1159 30.8268 42.1143 30.4133 42.8504 29.6772C43.5866 28.9411 44.0001 27.9426 44.0001 26.9016V5.92522C44.0001 4.88419 43.5866 3.88579 42.8504 3.14967C42.1143 2.41355 41.1159 2 40.0749 2H14.0114C12.9704 2 11.972 2.41355 11.2359 3.14967C10.4997 3.88579 10.0862 4.88419 10.0862 5.92522V8.06839M21.8695 21.4771H6.24709C5.11997 21.4791 4.03973 21.9283 3.24347 22.7261C2.44722 23.5238 2 24.6049 2 25.732V30.8269M14.7023 13.0063C14.7023 15.7334 12.4915 17.9442 9.76435 17.9442C7.0372 17.9442 4.82642 15.7334 4.82642 13.0063C4.82642 10.2791 7.0372 8.06836 9.76435 8.06836C12.4915 8.06836 14.7023 10.2791 14.7023 13.0063Z" stroke="#BB985C" stroke-width="3" stroke-linecap="round" stroke-linejoin="round"/>
</svg>
