<svg width="63" height="59" viewBox="0 0 63 59" fill="none" xmlns="http://www.w3.org/2000/svg">
<path d="M25.0405 51.7015H37.4608M26.8407 56.7674H35.6498M35.6485 33.6661L31.2439 36.9212V45.6795M26.8407 33.6661L31.2453 36.9212M31.3159 2V9.49693M52.2296 10.5142L46.9299 15.814M61 31.3163H53.503M10.5133 10.7687L15.813 16.0684M2 31.6825H9.49693M45.232 30.594C45.2345 28.1213 44.5781 25.6925 43.3302 23.5576C42.0824 21.4228 40.2882 19.659 38.1324 18.4478C35.9766 17.2366 33.537 16.6218 31.0646 16.6665C28.5922 16.7112 26.1765 17.414 24.0659 18.7024C21.9553 19.9908 20.2261 21.8183 19.0563 23.9968C17.8865 26.1754 17.3184 28.6264 17.4104 31.0974C17.5024 33.5685 18.2511 35.9704 19.5796 38.056C20.9081 40.1416 22.7683 41.8355 24.9689 42.9635V46.3203H37.6638V42.9635C39.9426 41.7993 41.8554 40.028 43.1909 37.8452C44.5264 35.6624 45.2328 33.153 45.232 30.594Z" stroke="#BB985C" stroke-width="3" stroke-linecap="round" stroke-linejoin="round"/>
</svg>
