<svg width="53" height="47" viewBox="0 0 53 47" fill="none" xmlns="http://www.w3.org/2000/svg">
<path d="M28.5849 14.4025L39.6938 10.2341M36.5458 35.7129L47.6546 31.5515M13.3427 3.88219H24.6855V13.0982M13.3427 3.88219V13.0982M13.3427 3.88219H2V13.0982M24.6855 13.0982H13.3427M24.6855 13.0982V35.7838M13.3427 13.0982V35.7838M13.3427 13.0982H2M13.3427 35.7838H24.6855M13.3427 35.7838V44.9998M13.3427 35.7838H2M24.6855 35.7838V44.9998H13.3427M13.3427 44.9998H2V35.7838M2 13.0982V35.7838M25.3135 6.22849L36.5991 2L51.0257 40.5038L39.7402 44.7323L25.3135 6.22849Z" stroke="#BB985C" stroke-width="2.19271" stroke-linecap="round" stroke-linejoin="round"/>
</svg>
